---
layout: post
title: "示例 Log 文件"

tags: []
comments: false
author: ZexWoo
toc: true
---

```
Exact Audio Copy V1.3 from 2. September 2016

EAC extraction logfile from 11. December 2019, 19:24

Connie Talbot / Beautiful World

Used drive  : ATAPI   CDRW 52X32   Adapter: 1  ID: 0

Read mode               : Secure
Utilize accurate stream : Yes
Defeat audio cache      : Yes
Make use of C2 pointers : No

Read offset correction                      : 738
Overread into Lead-In and Lead-Out          : Yes
Fill up missing offset samples with silence : Yes
Delete leading and trailing silent blocks   : No
Null samples used in CRC calculations       : Yes
Used interface                              : Native Win32 interface for Win NT & 2000
Gap handling                                : Appended to previous track

Used output format              : User Defined Encoder
Selected bitrate                : 896 kBit/s
Quality                         : High
Add ID3 tag                     : No
Command line compressor         : D:\Tools\foobar2000\encoders\flac.exe
Additional command line options : -8 -e -p -V -T "ARTIST=%artist%" -T "TITLE=%title%" -T "ALBUM=%albumtitle%" -T "DATE=%year%" -T "TRACKNUMBER=%tracknr%" -T "GENRE=%genre%" -T "COMMENT=%comment%" -T "BAND=%albuminterpret%" -T "ALBUMARTIST=%albuminterpret%" -T "COMPOSER=%composer%" %haslyrics%--tag-from-file=LYRICS="%lyricsfile%"%haslyrics% -T "DISCNUMBER=%cdnumber%" -T "TOTALDISCS=%totalcds%" -T "TOTALTRACKS=%numtracks%" %hascover%--picture="%coverfile%"%hascover% %source% -o %dest%


TOC of the extracted CD

     Track |   Start  |  Length  | Start sector | End sector 
    ---------------------------------------------------------
        1  |  0:00.00 |  3:40.53 |         0    |    16552   
        2  |  3:40.53 |  3:57.44 |     16553    |    34371   
        3  |  7:38.22 |  3:36.50 |     34372    |    50621   
        4  | 11:14.72 |  4:21.44 |     50622    |    70240   
        5  | 15:36.41 |  3:05.30 |     70241    |    84145   
        6  | 18:41.71 |  4:33.23 |     84146    |   104643   
        7  | 23:15.19 |  3:57.29 |    104644    |   122447   
        8  | 27:12.48 |  3:32.60 |    122448    |   138407   
        9  | 30:45.33 |  3:24.03 |    138408    |   153710   
       10  | 34:09.36 |  3:41.19 |    153711    |   170304   
       11  | 37:50.55 |  4:09.18 |    170305    |   188997   
       12  | 41:59.73 |  4:43.22 |    188998    |   210244   
       13  | 46:43.20 |  3:59.06 |    210245    |   228175   


Track  1

     Filename E:\EAC\Connie Talbot - Beautiful World (2012) {EVSA244} [FLAC]\01. Count on Me.wav

     Pre-gap length  0:00:02.00

     Peak level 98.8 %
     Extraction speed 5.4 X
     Track quality 100.0 %
     Test CRC 1BB6B01A
     Copy CRC 1BB6B01A
     Accurately ripped (confidence 11)  [BEC8CB90]  (AR v2)
     Copy OK

Track  2

     Filename E:\EAC\Connie Talbot - Beautiful World (2012) {EVSA244} [FLAC]\02. Let It Be.wav

     Pre-gap length  0:00:01.00

     Peak level 96.1 %
     Extraction speed 6.0 X
     Track quality 100.0 %
     Test CRC CDD4C752
     Copy CRC CDD4C752
     Accurately ripped (confidence 11)  [9799BC2E]  (AR v2)
     Copy OK

Track  3

     Filename E:\EAC\Connie Talbot - Beautiful World (2012) {EVSA244} [FLAC]\03. The Climb.wav

     Pre-gap length  0:00:00.70

     Peak level 96.8 %
     Extraction speed 7.1 X
     Track quality 100.0 %
     Test CRC 23878F35
     Copy CRC 23878F35
     Accurately ripped (confidence 11)  [12BA106E]  (AR v2)
     Copy OK

Track  4

     Filename E:\EAC\Connie Talbot - Beautiful World (2012) {EVSA244} [FLAC]\04. What the World Needs Now.wav

     Pre-gap length  0:00:01.37

     Peak level 99.7 %
     Extraction speed 6.3 X
     Track quality 99.9 %
     Test CRC FA2DC85E
     Copy CRC FA2DC85E
     Accurately ripped (confidence 11)  [4ECD8043]  (AR v2)
     Copy OK

Track  5

     Filename E:\EAC\Connie Talbot - Beautiful World (2012) {EVSA244} [FLAC]\05. Fireflies.wav

     Pre-gap length  0:00:01.78

     Peak level 97.0 %
     Extraction speed 8.8 X
     Track quality 100.0 %
     Test CRC CF718AA5
     Copy CRC CF718AA5
     Accurately ripped (confidence 11)  [70EE27E0]  (AR v2)
     Copy OK

Track  6

     Filename E:\EAC\Connie Talbot - Beautiful World (2012) {EVSA244} [FLAC]\06. Beautiful World.wav

     Pre-gap length  0:00:01.86

     Peak level 96.7 %
     Extraction speed 7.7 X
     Track quality 100.0 %
     Test CRC B80E3650
     Copy CRC B80E3650
     Accurately ripped (confidence 11)  [085AF6C0]  (AR v2)
     Copy OK

Track  7

     Filename E:\EAC\Connie Talbot - Beautiful World (2012) {EVSA244} [FLAC]\07. Amazing Grace.wav

     Pre-gap length  0:00:01.13

     Peak level 96.9 %
     Extraction speed 7.5 X
     Track quality 99.9 %
     Test CRC 232CBA2B
     Copy CRC 232CBA2B
     Accurately ripped (confidence 11)  [84176DDA]  (AR v2)
     Copy OK

Track  8

     Filename E:\EAC\Connie Talbot - Beautiful World (2012) {EVSA244} [FLAC]\08. Pray.wav

     Pre-gap length  0:00:00.82

     Peak level 98.0 %
     Extraction speed 7.3 X
     Track quality 99.9 %
     Test CRC 4D2884DD
     Copy CRC 4D2884DD
     Accurately ripped (confidence 11)  [5186CE82]  (AR v2)
     Copy OK

Track  9

     Filename E:\EAC\Connie Talbot - Beautiful World (2012) {EVSA244} [FLAC]\09. Gift of a Friend.wav

     Pre-gap length  0:00:03.32

     Peak level 96.7 %
     Extraction speed 8.9 X
     Track quality 100.0 %
     Test CRC BE765A16
     Copy CRC BE765A16
     Accurately ripped (confidence 11)  [ECDB4142]  (AR v2)
     Copy OK

Track 10

     Filename E:\EAC\Connie Talbot - Beautiful World (2012) {EVSA244} [FLAC]\10. Imagine.wav

     Pre-gap length  0:00:02.50

     Peak level 96.8 %
     Extraction speed 9.1 X
     Track quality 100.0 %
     Test CRC 05C004E7
     Copy CRC 05C004E7
     Accurately ripped (confidence 11)  [AC4BCDF5]  (AR v2)
     Copy OK

Track 11

     Filename E:\EAC\Connie Talbot - Beautiful World (2012) {EVSA244} [FLAC]\11. Colours of the Wind.wav

     Pre-gap length  0:00:02.26

     Peak level 100.0 %
     Extraction speed 9.5 X
     Track quality 100.0 %
     Test CRC 70A7C424
     Copy CRC 70A7C424
     Accurately ripped (confidence 11)  [E4EE215B]  (AR v2)
     Copy OK

Track 12

     Filename E:\EAC\Connie Talbot - Beautiful World (2012) {EVSA244} [FLAC]\12. Heal the World.wav

     Pre-gap length  0:00:02.52

     Peak level 100.0 %
     Extraction speed 9.9 X
     Track quality 100.0 %
     Test CRC 73968407
     Copy CRC 73968407
     Accurately ripped (confidence 11)  [E2E599E6]  (AR v2)
     Copy OK

Track 13

     Filename E:\EAC\Connie Talbot - Beautiful World (2012) {EVSA244} [FLAC]\13. Hero.wav

     Pre-gap length  0:00:02.57

     Peak level 98.8 %
     Extraction speed 10.9 X
     Track quality 100.0 %
     Test CRC 98149D67
     Copy CRC 98149D67
     Accurately ripped (confidence 11)  [C63A7E2A]  (AR v2)
     Copy OK


All tracks accurately ripped

No errors occurred

End of status report

---- CUETools DB Plugin V2.1.6

[CTDB TOCID: Ub0GoeIlImVqliCbFX8DyQl4wk8-] found
Submit result: Ub0GoeIlImVqliCbFX8DyQl4wk8- has been confirmed
Track | CTDB Status
  1   | (36/37) Accurately ripped
  2   | (36/37) Accurately ripped
  3   | (36/37) Accurately ripped
  4   | (36/37) Accurately ripped
  5   | (36/37) Accurately ripped
  6   | (36/37) Accurately ripped
  7   | (36/37) Accurately ripped
  8   | (36/37) Accurately ripped
  9   | (36/37) Accurately ripped
 10   | (35/37) Accurately ripped
 11   | (36/37) Accurately ripped
 12   | (36/37) Accurately ripped
 13   | (36/37) Accurately ripped


==== Log checksum 378A4220089187148B04E1E8C06408FB54C43C5A79338444305B99988A98CDEF ====
```

更多关于 Log 的知识请见 [抓轨日志详解](https://zexwoo.github.io/ripping_log_file/)。